<svg xmlns="http://www.w3.org/2000/svg" xmlns:xlink="http://www.w3.org/1999/xlink" contentStyleType="text/css" data-diagram-type="SEQUENCE" height="794px" preserveAspectRatio="none" style="width:784px;height:794px;background:#FFFFFF;" version="1.1" viewBox="0 0 784 794" width="784px" zoomAndPan="magnify"><title>Fluxo da Experi&#234;ncia do Usu&#225;rio - UrbanXP</title><defs/><g><text fill="#000000" font-family="sans-serif" font-size="14" font-weight="bold" lengthAdjust="spacing" textLength="301.1914" x="240.8127" y="27.9951">Fluxo da Experi&#234;ncia do Usu&#225;rio - UrbanXP</text><g><title>Usu.rio</title><rect fill="#000000" fill-opacity="0.00000" height="594.6563" width="8" x="30.6021" y="118.5938"/><line style="stroke:#181818;stroke-width:0.5;stroke-dasharray:5,5;" x1="34" x2="34" y1="118.5938" y2="713.25"/></g><g><title>Amigos</title><rect fill="#000000" fill-opacity="0.00000" height="594.6563" width="8" x="175.4424" y="118.5938"/><line style="stroke:#181818;stroke-width:0.5;stroke-dasharray:5,5;" x1="178.5171" x2="178.5171" y1="118.5938" y2="713.25"/></g><g><title>IA</title><rect fill="#000000" fill-opacity="0.00000" height="594.6563" width="8" x="227.8677" y="118.5938"/><line style="stroke:#181818;stroke-width:0.5;stroke-dasharray:5,5;" x1="231.3677" x2="231.3677" y1="118.5938" y2="713.25"/></g><g><title>App</title><rect fill="#000000" fill-opacity="0.00000" height="594.6563" width="8" x="496.062" y="118.5938"/><line style="stroke:#181818;stroke-width:0.5;stroke-dasharray:5,5;" x1="499.3867" x2="499.3867" y1="118.5938" y2="713.25"/></g><g><title>Parceiros</title><rect fill="#000000" fill-opacity="0.00000" height="594.6563" width="8" x="735.5205" y="118.5938"/><line style="stroke:#181818;stroke-width:0.5;stroke-dasharray:5,5;" x1="739.2241" x2="739.2241" y1="118.5938" y2="713.25"/></g><g class="participant participant-head" data-participant="Usu.rio"><text fill="#000000" font-family="sans-serif" font-size="14" lengthAdjust="spacing" textLength="53.2041" x="5" y="115.292">Usu&#225;rio</text><ellipse cx="34.6021" cy="50.7969" fill="#E2E2F0" rx="8" ry="8" style="stroke:#181818;stroke-width:0.5;"/><path d="M34.6021,58.7969 L34.6021,85.7969 M21.6021,66.7969 L47.6021,66.7969 M34.6021,85.7969 L21.6021,100.7969 M34.6021,85.7969 L47.6021,100.7969" fill="none" style="stroke:#181818;stroke-width:0.5;"/></g><g class="participant participant-tail" data-participant="Usu.rio"><text fill="#000000" font-family="sans-serif" font-size="14" lengthAdjust="spacing" textLength="53.2041" x="5" y="725.2451">Usu&#225;rio</text><ellipse cx="34.6021" cy="737.0469" fill="#E2E2F0" rx="8" ry="8" style="stroke:#181818;stroke-width:0.5;"/><path d="M34.6021,745.0469 L34.6021,772.0469 M21.6021,753.0469 L47.6021,753.0469 M34.6021,772.0469 L21.6021,787.0469 M34.6021,772.0469 L47.6021,787.0469" fill="none" style="stroke:#181818;stroke-width:0.5;"/></g><g class="participant participant-head" data-participant="Amigos"><text fill="#000000" font-family="sans-serif" font-size="14" lengthAdjust="spacing" textLength="51.8506" x="150.5171" y="115.292">Amigos</text><ellipse cx="179.4424" cy="50.7969" fill="#E2E2F0" rx="8" ry="8" style="stroke:#181818;stroke-width:0.5;"/><path d="M179.4424,58.7969 L179.4424,85.7969 M166.4424,66.7969 L192.4424,66.7969 M179.4424,85.7969 L166.4424,100.7969 M179.4424,85.7969 L192.4424,100.7969" fill="none" style="stroke:#181818;stroke-width:0.5;"/></g><g class="participant participant-tail" data-participant="Amigos"><text fill="#000000" font-family="sans-serif" font-size="14" lengthAdjust="spacing" textLength="51.8506" x="150.5171" y="725.2451">Amigos</text><ellipse cx="179.4424" cy="737.0469" fill="#E2E2F0" rx="8" ry="8" style="stroke:#181818;stroke-width:0.5;"/><path d="M179.4424,745.0469 L179.4424,772.0469 M166.4424,753.0469 L192.4424,753.0469 M179.4424,772.0469 L166.4424,787.0469 M179.4424,772.0469 L192.4424,787.0469" fill="none" style="stroke:#181818;stroke-width:0.5;"/></g><g class="participant participant-head" data-participant="IA"><text fill="#000000" font-family="sans-serif" font-size="14" lengthAdjust="spacing" textLength="13.7061" x="222.0146" y="115.292">IA</text><ellipse cx="231.8677" cy="50.7969" fill="#E2E2F0" rx="8" ry="8" style="stroke:#181818;stroke-width:0.5;"/><path d="M231.8677,58.7969 L231.8677,85.7969 M218.8677,66.7969 L244.8677,66.7969 M231.8677,85.7969 L218.8677,100.7969 M231.8677,85.7969 L244.8677,100.7969" fill="none" style="stroke:#181818;stroke-width:0.5;"/></g><g class="participant participant-tail" data-participant="IA"><text fill="#000000" font-family="sans-serif" font-size="14" lengthAdjust="spacing" textLength="13.7061" x="222.0146" y="725.2451">IA</text><ellipse cx="231.8677" cy="737.0469" fill="#E2E2F0" rx="8" ry="8" style="stroke:#181818;stroke-width:0.5;"/><path d="M231.8677,745.0469 L231.8677,772.0469 M218.8677,753.0469 L244.8677,753.0469 M231.8677,772.0469 L218.8677,787.0469 M231.8677,772.0469 L244.8677,787.0469" fill="none" style="stroke:#181818;stroke-width:0.5;"/></g><g class="participant participant-head" data-participant="App"><rect fill="#E2E2F0" height="30.2969" rx="2.5" ry="2.5" style="stroke:#181818;stroke-width:0.5;" width="41.3506" x="479.3867" y="87.2969"/><text fill="#000000" font-family="sans-serif" font-size="14" lengthAdjust="spacing" textLength="27.3506" x="486.3867" y="107.292">App</text></g><g class="participant participant-tail" data-participant="App"><rect fill="#E2E2F0" height="30.2969" rx="2.5" ry="2.5" style="stroke:#181818;stroke-width:0.5;" width="41.3506" x="479.3867" y="712.25"/><text fill="#000000" font-family="sans-serif" font-size="14" lengthAdjust="spacing" textLength="27.3506" x="486.3867" y="732.2451">App</text></g><g class="participant participant-head" data-participant="Parceiros"><rect fill="#E2E2F0" height="30.2969" rx="2.5" ry="2.5" style="stroke:#181818;stroke-width:0.5;" width="78.5928" x="700.2241" y="87.2969"/><text fill="#000000" font-family="sans-serif" font-size="14" lengthAdjust="spacing" textLength="64.5928" x="707.2241" y="107.292">Parceiros</text></g><g class="participant participant-tail" data-participant="Parceiros"><rect fill="#E2E2F0" height="30.2969" rx="2.5" ry="2.5" style="stroke:#181818;stroke-width:0.5;" width="78.5928" x="700.2241" y="712.25"/><text fill="#000000" font-family="sans-serif" font-size="14" lengthAdjust="spacing" textLength="64.5928" x="707.2241" y="732.2451">Parceiros</text></g><g class="message" data-participant-1="Usu.rio" data-participant-2="App"><polygon fill="#181818" points="488.062,145.7266,498.062,149.7266,488.062,153.7266,492.062,149.7266" style="stroke:#181818;stroke-width:1;"/><line style="stroke:#181818;stroke-width:1;" x1="34.6021" x2="494.062" y1="149.7266" y2="149.7266"/><text fill="#000000" font-family="sans-serif" font-size="13" lengthAdjust="spacing" textLength="157.2251" x="41.6021" y="144.6606">Download e Onboarding</text></g><g class="message" data-participant-1="App" data-participant-2="Usu.rio"><polygon fill="#181818" points="45.6021,174.8594,35.6021,178.8594,45.6021,182.8594,41.6021,178.8594" style="stroke:#181818;stroke-width:1;"/><line style="stroke:#181818;stroke-width:1;" x1="39.6021" x2="499.062" y1="178.8594" y2="178.8594"/><text fill="#000000" font-family="sans-serif" font-size="13" lengthAdjust="spacing" textLength="191.6802" x="51.6021" y="173.7935">Configura&#231;&#227;o de Prefer&#234;ncias</text></g><g class="message" data-participant-1="Usu.rio" data-participant-2="App"><polygon fill="#181818" points="488.062,203.9922,498.062,207.9922,488.062,211.9922,492.062,207.9922" style="stroke:#181818;stroke-width:1;"/><line style="stroke:#181818;stroke-width:1;" x1="34.6021" x2="494.062" y1="207.9922" y2="207.9922"/><text fill="#000000" font-family="sans-serif" font-size="13" lengthAdjust="spacing" textLength="168.7397" x="41.6021" y="202.9263">Pedido de Recomenda&#231;&#227;o</text></g><g class="message" data-participant-1="App" data-participant-2="IA"><polygon fill="#181818" points="242.8677,233.125,232.8677,237.125,242.8677,241.125,238.8677,237.125" style="stroke:#181818;stroke-width:1;"/><line style="stroke:#181818;stroke-width:1;" x1="236.8677" x2="499.062" y1="237.125" y2="237.125"/><text fill="#000000" font-family="sans-serif" font-size="13" lengthAdjust="spacing" textLength="228.7314" x="248.8677" y="232.0591">Envia pedido (chat/&#225;udio ou filtros)</text></g><g class="message" data-participant-1="IA" data-participant-2="App"><polygon fill="#181818" points="488.062,262.2578,498.062,266.2578,488.062,270.2578,492.062,266.2578" style="stroke:#181818;stroke-width:1;"/><line style="stroke:#181818;stroke-width:1;" x1="231.8677" x2="494.062" y1="266.2578" y2="266.2578"/><text fill="#000000" font-family="sans-serif" font-size="13" lengthAdjust="spacing" textLength="206.3813" x="238.8677" y="261.1919">Sugest&#245;es e roteiros inteligentes</text></g><g class="message" data-participant-1="App" data-participant-2="Usu.rio"><polygon fill="#181818" points="45.6021,291.3906,35.6021,295.3906,45.6021,299.3906,41.6021,295.3906" style="stroke:#181818;stroke-width:1;"/><line style="stroke:#181818;stroke-width:1;" x1="39.6021" x2="499.062" y1="295.3906" y2="295.3906"/><text fill="#000000" font-family="sans-serif" font-size="13" lengthAdjust="spacing" textLength="110.2778" x="51.6021" y="290.3247">Visualizar roteiro</text></g><g class="message" data-participant-1="Usu.rio" data-participant-2="App"><polygon fill="#181818" points="488.062,320.5234,498.062,324.5234,488.062,328.5234,492.062,324.5234" style="stroke:#181818;stroke-width:1;"/><line style="stroke:#181818;stroke-width:1;" x1="34.6021" x2="494.062" y1="324.5234" y2="324.5234"/><text fill="#000000" font-family="sans-serif" font-size="13" lengthAdjust="spacing" textLength="162.373" x="41.6021" y="319.4575">Ajustar roteiro (opcional)</text></g><g class="message" data-participant-1="Usu.rio" data-participant-2="Amigos"><polygon fill="#181818" points="167.4424,349.6563,177.4424,353.6563,167.4424,357.6563,171.4424,353.6563" style="stroke:#181818;stroke-width:1;"/><line style="stroke:#181818;stroke-width:1;" x1="34.6021" x2="173.4424" y1="353.6563" y2="353.6563"/><text fill="#000000" font-family="sans-serif" font-size="13" lengthAdjust="spacing" textLength="120.8403" x="41.6021" y="348.5903">Convidar para rol&#234;</text></g><g class="message" data-participant-1="Amigos" data-participant-2="App"><polygon fill="#181818" points="488.062,378.7891,498.062,382.7891,488.062,386.7891,492.062,382.7891" style="stroke:#181818;stroke-width:1;"/><line style="stroke:#181818;stroke-width:1;" x1="179.4424" x2="494.062" y1="382.7891" y2="382.7891"/><text fill="#000000" font-family="sans-serif" font-size="13" lengthAdjust="spacing" textLength="146.9229" x="186.4424" y="377.7231">Confirma&#231;&#227;o / vota&#231;&#227;o</text></g><g class="message" data-participant-1="App" data-participant-2="IA"><polygon fill="#181818" points="242.8677,407.9219,232.8677,411.9219,242.8677,415.9219,238.8677,411.9219" style="stroke:#181818;stroke-width:1;"/><line style="stroke:#181818;stroke-width:1;" x1="236.8677" x2="499.062" y1="411.9219" y2="411.9219"/><text fill="#000000" font-family="sans-serif" font-size="13" lengthAdjust="spacing" textLength="244.1943" x="248.8677" y="406.856">Recalcula roteiro considerando grupo</text></g><g class="message" data-participant-1="Usu.rio" data-participant-2="App"><polygon fill="#181818" points="488.062,437.0547,498.062,441.0547,488.062,445.0547,492.062,441.0547" style="stroke:#181818;stroke-width:1;"/><line style="stroke:#181818;stroke-width:1;" x1="34.6021" x2="494.062" y1="441.0547" y2="441.0547"/><text fill="#000000" font-family="sans-serif" font-size="13" lengthAdjust="spacing" textLength="106.8691" x="41.6021" y="435.9888">Confirma roteiro</text></g><g class="message" data-participant-1="App" data-participant-2="Parceiros"><polygon fill="#181818" points="727.5205,466.1875,737.5205,470.1875,727.5205,474.1875,731.5205,470.1875" style="stroke:#181818;stroke-width:1;"/><line style="stroke:#181818;stroke-width:1;" x1="500.062" x2="733.5205" y1="470.1875" y2="470.1875"/><text fill="#000000" font-family="sans-serif" font-size="13" lengthAdjust="spacing" textLength="202.9409" x="507.062" y="465.1216">Reserva / Compra de ingressos</text></g><g class="message" data-participant-1="Parceiros" data-participant-2="App"><polygon fill="#181818" points="511.062,495.3203,501.062,499.3203,511.062,503.3203,507.062,499.3203" style="stroke:#181818;stroke-width:1;"/><line style="stroke:#181818;stroke-width:1;" x1="505.062" x2="738.5205" y1="499.3203" y2="499.3203"/><text fill="#000000" font-family="sans-serif" font-size="13" lengthAdjust="spacing" textLength="215.4585" x="517.062" y="494.2544">Confirma&#231;&#227;o de reserva/ingresso</text></g><g class="message" data-participant-1="App" data-participant-2="Usu.rio"><polygon fill="#181818" points="45.6021,524.4531,35.6021,528.4531,45.6021,532.4531,41.6021,528.4531" style="stroke:#181818;stroke-width:1;"/><line style="stroke:#181818;stroke-width:1;" x1="39.6021" x2="499.062" y1="528.4531" y2="528.4531"/><text fill="#000000" font-family="sans-serif" font-size="13" lengthAdjust="spacing" textLength="128.8892" x="51.6021" y="523.3872">Hist&#243;rico atualizado</text></g><g class="message" data-participant-1="Usu.rio" data-participant-2="App"><polygon fill="#181818" points="488.062,553.5859,498.062,557.5859,488.062,561.5859,492.062,557.5859" style="stroke:#181818;stroke-width:1;"/><line style="stroke:#181818;stroke-width:1;" x1="34.6021" x2="494.062" y1="557.5859" y2="557.5859"/><text fill="#000000" font-family="sans-serif" font-size="13" lengthAdjust="spacing" textLength="132.666" x="41.6021" y="552.52">Check-in gamificado</text></g><g class="message" data-participant-1="Usu.rio" data-participant-2="App"><polygon fill="#181818" points="488.062,582.7188,498.062,586.7188,488.062,590.7188,492.062,586.7188" style="stroke:#181818;stroke-width:1;"/><line style="stroke:#181818;stroke-width:1;" x1="34.6021" x2="494.062" y1="586.7188" y2="586.7188"/><text fill="#000000" font-family="sans-serif" font-size="13" lengthAdjust="spacing" textLength="119.3296" x="41.6021" y="581.6528">Feedback p&#243;s-rol&#234;</text></g><g class="message" data-participant-1="App" data-participant-2="IA"><polygon fill="#181818" points="242.8677,611.8516,232.8677,615.8516,242.8677,619.8516,238.8677,615.8516" style="stroke:#181818;stroke-width:1;"/><line style="stroke:#181818;stroke-width:1;" x1="236.8677" x2="499.062" y1="615.8516" y2="615.8516"/><text fill="#000000" font-family="sans-serif" font-size="13" lengthAdjust="spacing" textLength="234.5142" x="248.8677" y="610.7856">Atualiza prefer&#234;ncias e aprendizado</text></g><g class="message" data-participant-1="App" data-participant-2="Usu.rio"><polygon fill="#181818" points="45.6021,640.9844,35.6021,644.9844,45.6021,648.9844,41.6021,644.9844" style="stroke:#181818;stroke-width:1;"/><line style="stroke:#181818;stroke-width:1;" x1="39.6021" x2="499.062" y1="644.9844" y2="644.9844"/><text fill="#000000" font-family="sans-serif" font-size="13" lengthAdjust="spacing" textLength="212.5767" x="51.6021" y="639.9185">Notifica&#231;&#245;es e alertas contextuais</text></g><path d="M505,657.9844 L505,697.9844 L736,697.9844 L736,667.9844 L726,657.9844 L505,657.9844" fill="#FEFFDD" style="stroke:#181818;stroke-width:0.5;"/><path d="M726,657.9844 L726,667.9844 L736,667.9844 L726,657.9844" fill="#FEFFDD" style="stroke:#181818;stroke-width:0.5;"/><text fill="#000000" font-family="sans-serif" font-size="13" lengthAdjust="spacing" textLength="210.6978" x="511" y="675.0513">Baseadas em localiza&#231;&#227;o, clima,</text><text fill="#000000" font-family="sans-serif" font-size="13" lengthAdjust="spacing" textLength="200.6113" x="511" y="690.1841">eventos pr&#243;ximos e promo&#231;&#245;es.</text><!--SRC=[TP9DRjim48NtEiKi4o2kzraKKDC4yIOrKhJx2JcMfw4u14cvHcyJT54WMwCdqCKw-h6SmEhAaFdclSUFapaxWZlNx0Kimkq-KEJsrHj6i0BVKjE-H1POmACuAbT5WIPBd0x6pxBcIjBuiIgBuZJu4SeGu1e-oq_l12qGVF5FWj6ohuhkJ2MJ_1fkn6-uQYAsVzhVMefW7Mb3SIYLvgpNPDdsqaSoKfEtm_3HVLMgwDRlz4vXa5wOBUPb-z9OzP46Dknob7HPg7Io_TfKb7Bxbv9sZfA9LGBiCpckI7-qp7d_xvmQTFmBut5cfd7veqdvf80B2OR5exjyB-wn3b1sR7KWO4ITSkrhCHvEdZsuM8_Sbh2JF8D12Q4pZSCfsuXFR2cYLp1LR8BCCJwwJvSQJTSOpG2cyquKTwZPDr87BQeleeySAILTZfFoFvLL7GU7vN5gXkyzwviS8Xi1p0DfEzzuI-PvmHugh7d3ffETg-w8x1EQPmZj8Ir6iczubMC6XBTRg0k1-eUtO_fvpGV9VQXURLWWT1IpJYhkJ7jrvLHuPGcHgsq6sNI52e1Fc0Xj5r634zE7ztokm3YkyKerjDFrKv0XjeSzrzBvXoYr36aV2cq6dVa_]--></g></svg>